<?xml version="1.0" encoding="UTF-8" standalone="no"?>
<!-- Created with Inkscape (http://www.inkscape.org/) -->
<svg
   xmlns:svg="http://www.w3.org/2000/svg"
   xmlns="http://www.w3.org/2000/svg"
   version="1.0"
   width="832.97601"
   height="214.269"
   id="svg2">
  <defs
     id="defs4" />
  <g
     id="g12">
    <path
       d="M 159.888,38.338 C 160.064,37.56 160.752,34.81 162.845,34.81 C 162.994,34.81 163.713,34.81 164.342,35.201 C 163.502,35.349 162.904,36.095 162.904,36.814 C 162.904,37.295 163.232,37.861 164.041,37.861 C 164.697,37.861 165.654,37.322 165.654,36.127 C 165.654,34.572 163.892,34.154 162.877,34.154 C 161.142,34.154 160.095,35.74 159.736,36.427 C 158.99,34.455 157.377,34.154 156.509,34.154 C 153.4,34.154 151.697,38.01 151.697,38.756 C 151.697,39.056 151.998,39.056 152.056,39.056 C 152.295,39.056 152.384,38.998 152.443,38.728 C 153.463,35.56 155.431,34.81 156.451,34.81 C 157.017,34.81 158.064,35.08 158.064,36.814 C 158.064,37.74 157.556,39.744 156.451,43.927 C 155.97,45.779 154.924,47.037 153.611,47.037 C 153.431,47.037 152.744,47.037 152.115,46.646 C 152.861,46.498 153.521,45.869 153.521,45.033 C 153.521,44.228 152.861,43.986 152.416,43.986 C 151.517,43.986 150.771,44.763 150.771,45.72 C 150.771,47.095 152.263,47.693 153.58,47.693 C 155.552,47.693 156.631,45.603 156.72,45.424 C 157.076,46.529 158.154,47.693 159.947,47.693 C 163.025,47.693 164.728,43.838 164.728,43.092 C 164.728,42.791 164.459,42.791 164.369,42.791 C 164.099,42.791 164.041,42.912 163.982,43.123 C 162.994,46.318 160.963,47.037 160.006,47.037 C 158.842,47.037 158.361,46.08 158.361,45.064 C 158.361,44.408 158.541,43.748 158.869,42.435 L 159.888,38.338 z"
       id="path14"
       style="fill:#000000;fill-rule:evenodd;stroke:none" />
    <path
       d="M 176.799,54.537 C 176.799,54.447 176.799,54.388 176.291,53.881 C 172.552,50.115 171.595,44.467 171.595,39.892 C 171.595,34.693 172.732,29.494 176.408,25.756 C 176.799,25.396 176.799,25.338 176.799,25.248 C 176.799,25.037 176.677,24.951 176.498,24.951 C 176.201,24.951 173.509,26.982 171.748,30.779 C 170.22,34.064 169.861,37.381 169.861,39.892 C 169.861,42.224 170.193,45.842 171.834,49.217 C 173.631,52.892 176.201,54.838 176.498,54.838 C 176.677,54.838 176.799,54.748 176.799,54.537 z"
       id="path16"
       style="fill:#000000;fill-rule:evenodd;stroke:none" />
    <path
       d="M 184.06,35.408 L 186.869,35.408 C 187.466,35.408 187.767,35.408 187.767,34.81 C 187.767,34.482 187.466,34.482 186.931,34.482 L 184.299,34.482 C 185.377,30.24 185.525,29.642 185.525,29.463 C 185.525,28.955 185.166,28.654 184.658,28.654 C 184.568,28.654 183.732,28.685 183.463,29.732 L 182.299,34.482 L 179.49,34.482 C 178.888,34.482 178.592,34.482 178.592,35.053 C 178.592,35.408 178.83,35.408 179.427,35.408 L 182.06,35.408 C 179.908,43.896 179.787,44.408 179.787,44.943 C 179.787,46.556 180.924,47.693 182.537,47.693 C 185.584,47.693 187.291,43.33 187.291,43.092 C 187.291,42.791 187.049,42.791 186.931,42.791 C 186.662,42.791 186.631,42.881 186.482,43.209 C 185.197,46.318 183.611,47.037 182.595,47.037 C 181.97,47.037 181.67,46.646 181.67,45.662 C 181.67,44.943 181.728,44.736 181.849,44.228 L 184.06,35.408 z"
       id="path18"
       style="fill:#000000;fill-rule:evenodd;stroke:none" />
    <path
       d="M 215.662,40.49 C 216.08,40.49 216.646,40.49 216.646,39.892 C 216.646,39.295 216.08,39.295 215.662,39.295 L 199.373,39.295 C 198.951,39.295 198.384,39.295 198.384,39.892 C 198.384,40.49 198.951,40.49 199.373,40.49 L 215.662,40.49 z"
       id="path20"
       style="fill:#000000;fill-rule:evenodd;stroke:none" />
    <path
       d="M 234.689,28.236 C 234.689,27.521 234.689,27.459 234.006,27.459 C 232.15,29.373 229.521,29.373 228.564,29.373 L 228.564,30.299 C 229.162,30.299 230.924,30.299 232.478,29.521 L 232.478,45.006 C 232.478,46.08 232.388,46.439 229.701,46.439 L 228.744,46.439 L 228.744,47.365 C 229.791,47.275 232.388,47.275 233.584,47.275 C 234.779,47.275 237.381,47.275 238.427,47.365 L 238.427,46.439 L 237.47,46.439 C 234.779,46.439 234.689,46.111 234.689,45.006 L 234.689,28.236 z M 249.541,39.892 C 249.541,37.56 249.213,33.947 247.568,30.568 C 245.775,26.892 243.205,24.951 242.908,24.951 C 242.728,24.951 242.607,25.068 242.607,25.248 C 242.607,25.338 242.607,25.396 243.177,25.935 C 246.103,28.892 247.806,33.646 247.806,39.892 C 247.806,45.006 246.701,50.263 242.998,54.029 C 242.607,54.388 242.607,54.447 242.607,54.537 C 242.607,54.717 242.728,54.838 242.908,54.838 C 243.205,54.838 245.896,52.806 247.658,49.01 C 249.181,45.72 249.541,42.404 249.541,39.892 z"
       id="path22"
       style="fill:#000000;fill-rule:evenodd;stroke:none" />
    <path
       d="M 276.216,39.845 C 276.216,8.689 237.142,0.899994 200.924,0.899994 C 164.697,0.899994 125.623,8.689 125.623,39.845 C 125.623,70.994 164.697,78.787 200.924,78.787 C 237.142,78.787 276.216,70.994 276.216,39.845 z"
       id="path24"
       style="fill:none;stroke:#000000;stroke-width:1.79999995;stroke-linejoin:round" />
    <path
       d="M 400.888,38.338 C 401.064,37.56 401.752,34.81 403.845,34.81 C 403.994,34.81 404.713,34.81 405.342,35.201 C 404.502,35.349 403.904,36.095 403.904,36.814 C 403.904,37.295 404.232,37.861 405.041,37.861 C 405.697,37.861 406.654,37.322 406.654,36.127 C 406.654,34.572 404.892,34.154 403.877,34.154 C 402.142,34.154 401.095,35.74 400.736,36.427 C 399.99,34.455 398.377,34.154 397.509,34.154 C 394.4,34.154 392.697,38.01 392.697,38.756 C 392.697,39.056 392.998,39.056 393.056,39.056 C 393.295,39.056 393.384,38.998 393.443,38.728 C 394.463,35.56 396.431,34.81 397.451,34.81 C 398.017,34.81 399.064,35.08 399.064,36.814 C 399.064,37.74 398.556,39.744 397.451,43.927 C 396.97,45.779 395.924,47.037 394.611,47.037 C 394.431,47.037 393.744,47.037 393.115,46.646 C 393.861,46.498 394.521,45.869 394.521,45.033 C 394.521,44.228 393.861,43.986 393.416,43.986 C 392.517,43.986 391.771,44.763 391.771,45.72 C 391.771,47.095 393.263,47.693 394.58,47.693 C 396.552,47.693 397.631,45.603 397.72,45.424 C 398.076,46.529 399.154,47.693 400.947,47.693 C 404.025,47.693 405.728,43.838 405.728,43.092 C 405.728,42.791 405.459,42.791 405.369,42.791 C 405.099,42.791 405.041,42.912 404.982,43.123 C 403.994,46.318 401.963,47.037 401.006,47.037 C 399.842,47.037 399.361,46.08 399.361,45.064 C 399.361,44.408 399.541,43.748 399.869,42.435 L 400.888,38.338 z"
       id="path26"
       style="fill:#000000;fill-rule:evenodd;stroke:none" />
    <path
       d="M 417.799,54.537 C 417.799,54.447 417.799,54.388 417.291,53.881 C 413.552,50.115 412.595,44.467 412.595,39.892 C 412.595,34.693 413.732,29.494 417.408,25.756 C 417.799,25.396 417.799,25.338 417.799,25.248 C 417.799,25.037 417.677,24.951 417.498,24.951 C 417.201,24.951 414.509,26.982 412.748,30.779 C 411.22,34.064 410.861,37.381 410.861,39.892 C 410.861,42.224 411.193,45.842 412.834,49.217 C 414.631,52.892 417.201,54.838 417.498,54.838 C 417.677,54.838 417.799,54.748 417.799,54.537 z"
       id="path28"
       style="fill:#000000;fill-rule:evenodd;stroke:none" />
    <path
       d="M 426.06,35.408 L 428.869,35.408 C 429.466,35.408 429.767,35.408 429.767,34.81 C 429.767,34.482 429.466,34.482 428.931,34.482 L 426.299,34.482 C 427.377,30.24 427.525,29.642 427.525,29.463 C 427.525,28.955 427.166,28.654 426.658,28.654 C 426.568,28.654 425.732,28.685 425.463,29.732 L 424.299,34.482 L 421.49,34.482 C 420.888,34.482 420.592,34.482 420.592,35.053 C 420.592,35.408 420.83,35.408 421.427,35.408 L 424.06,35.408 C 421.908,43.896 421.787,44.408 421.787,44.943 C 421.787,46.556 422.924,47.693 424.537,47.693 C 427.584,47.693 429.291,43.33 429.291,43.092 C 429.291,42.791 429.049,42.791 428.931,42.791 C 428.662,42.791 428.631,42.881 428.482,43.209 C 427.197,46.318 425.611,47.037 424.595,47.037 C 423.97,47.037 423.67,46.646 423.67,45.662 C 423.67,44.943 423.728,44.736 423.849,44.228 L 426.06,35.408 z"
       id="path30"
       style="fill:#000000;fill-rule:evenodd;stroke:none" />
    <path
       d="M 439.541,39.892 C 439.541,37.56 439.213,33.947 437.568,30.568 C 435.775,26.892 433.205,24.951 432.908,24.951 C 432.728,24.951 432.607,25.068 432.607,25.248 C 432.607,25.338 432.607,25.396 433.177,25.935 C 436.103,28.892 437.806,33.646 437.806,39.892 C 437.806,45.006 436.701,50.263 432.998,54.029 C 432.607,54.388 432.607,54.447 432.607,54.537 C 432.607,54.717 432.728,54.838 432.908,54.838 C 433.205,54.838 435.896,52.806 437.658,49.01 C 439.181,45.72 439.541,42.404 439.541,39.892 z"
       id="path32"
       style="fill:#000000;fill-rule:evenodd;stroke:none" />
    <path
       d="M 466.049,39.845 C 466.049,16.131 442.127,0.899994 416.49,0.899994 C 390.849,0.899994 366.927,16.131 366.927,39.845 C 366.927,63.556 390.849,78.787 416.49,78.787 C 442.127,78.787 466.049,63.556 466.049,39.845 z"
       id="path34"
       style="fill:none;stroke:#000000;stroke-width:1.79999995;stroke-linejoin:round" />
    <path
       d="M 590.888,38.338 C 591.064,37.56 591.752,34.81 593.845,34.81 C 593.994,34.81 594.713,34.81 595.342,35.201 C 594.502,35.349 593.904,36.095 593.904,36.814 C 593.904,37.295 594.232,37.861 595.041,37.861 C 595.697,37.861 596.654,37.322 596.654,36.127 C 596.654,34.572 594.892,34.154 593.877,34.154 C 592.142,34.154 591.095,35.74 590.736,36.427 C 589.99,34.455 588.377,34.154 587.509,34.154 C 584.4,34.154 582.697,38.01 582.697,38.756 C 582.697,39.056 582.998,39.056 583.056,39.056 C 583.295,39.056 583.384,38.998 583.443,38.728 C 584.463,35.56 586.431,34.81 587.451,34.81 C 588.017,34.81 589.064,35.08 589.064,36.814 C 589.064,37.74 588.556,39.744 587.451,43.927 C 586.97,45.779 585.924,47.037 584.611,47.037 C 584.431,47.037 583.744,47.037 583.115,46.646 C 583.861,46.498 584.521,45.869 584.521,45.033 C 584.521,44.228 583.861,43.986 583.416,43.986 C 582.517,43.986 581.771,44.763 581.771,45.72 C 581.771,47.095 583.263,47.693 584.58,47.693 C 586.552,47.693 587.631,45.603 587.72,45.424 C 588.076,46.529 589.154,47.693 590.947,47.693 C 594.025,47.693 595.728,43.838 595.728,43.092 C 595.728,42.791 595.459,42.791 595.369,42.791 C 595.099,42.791 595.041,42.912 594.982,43.123 C 593.994,46.318 591.963,47.037 591.006,47.037 C 589.842,47.037 589.361,46.08 589.361,45.064 C 589.361,44.408 589.541,43.748 589.869,42.435 L 590.888,38.338 z"
       id="path36"
       style="fill:#000000;fill-rule:evenodd;stroke:none" />
    <path
       d="M 607.799,54.537 C 607.799,54.447 607.799,54.388 607.291,53.881 C 603.552,50.115 602.595,44.467 602.595,39.892 C 602.595,34.693 603.732,29.494 607.408,25.756 C 607.799,25.396 607.799,25.338 607.799,25.248 C 607.799,25.037 607.677,24.951 607.498,24.951 C 607.201,24.951 604.509,26.982 602.748,30.779 C 601.22,34.064 600.861,37.381 600.861,39.892 C 600.861,42.224 601.193,45.842 602.834,49.217 C 604.631,52.892 607.201,54.838 607.498,54.838 C 607.677,54.838 607.799,54.748 607.799,54.537 z"
       id="path38"
       style="fill:#000000;fill-rule:evenodd;stroke:none" />
    <path
       d="M 616.06,35.408 L 618.869,35.408 C 619.466,35.408 619.767,35.408 619.767,34.81 C 619.767,34.482 619.466,34.482 618.931,34.482 L 616.299,34.482 C 617.377,30.24 617.525,29.642 617.525,29.463 C 617.525,28.955 617.166,28.654 616.658,28.654 C 616.568,28.654 615.732,28.685 615.463,29.732 L 614.299,34.482 L 611.49,34.482 C 610.888,34.482 610.592,34.482 610.592,35.053 C 610.592,35.408 610.83,35.408 611.427,35.408 L 614.06,35.408 C 611.908,43.896 611.787,44.408 611.787,44.943 C 611.787,46.556 612.924,47.693 614.537,47.693 C 617.584,47.693 619.291,43.33 619.291,43.092 C 619.291,42.791 619.049,42.791 618.931,42.791 C 618.662,42.791 618.631,42.881 618.482,43.209 C 617.197,46.318 615.611,47.037 614.595,47.037 C 613.97,47.037 613.67,46.646 613.67,45.662 C 613.67,44.943 613.728,44.736 613.849,44.228 L 616.06,35.408 z"
       id="path40"
       style="fill:#000000;fill-rule:evenodd;stroke:none" />
    <path
       d="M 639.127,40.49 L 647.466,40.49 C 647.884,40.49 648.455,40.49 648.455,39.892 C 648.455,39.295 647.884,39.295 647.466,39.295 L 639.127,39.295 L 639.127,30.927 C 639.127,30.51 639.127,29.939 638.529,29.939 C 637.931,29.939 637.931,30.51 637.931,30.927 L 637.931,39.295 L 629.564,39.295 C 629.146,39.295 628.576,39.295 628.576,39.892 C 628.576,40.49 629.146,40.49 629.564,40.49 L 637.931,40.49 L 637.931,48.861 C 637.931,49.279 637.931,49.845 638.529,49.845 C 639.127,49.845 639.127,49.279 639.127,48.861 L 639.127,40.49 z"
       id="path42"
       style="fill:#000000;fill-rule:evenodd;stroke:none" />
    <path
       d="M 665.689,28.236 C 665.689,27.521 665.689,27.459 665.006,27.459 C 663.15,29.373 660.521,29.373 659.564,29.373 L 659.564,30.299 C 660.162,30.299 661.924,30.299 663.478,29.521 L 663.478,45.006 C 663.478,46.08 663.388,46.439 660.701,46.439 L 659.744,46.439 L 659.744,47.365 C 660.791,47.275 663.388,47.275 664.584,47.275 C 665.779,47.275 668.381,47.275 669.427,47.365 L 669.427,46.439 L 668.47,46.439 C 665.779,46.439 665.689,46.111 665.689,45.006 L 665.689,28.236 z M 680.541,39.892 C 680.541,37.56 680.213,33.947 678.568,30.568 C 676.775,26.892 674.205,24.951 673.908,24.951 C 673.728,24.951 673.607,25.068 673.607,25.248 C 673.607,25.338 673.607,25.396 674.177,25.935 C 677.103,28.892 678.806,33.646 678.806,39.892 C 678.806,45.006 677.701,50.263 673.998,54.029 C 673.607,54.388 673.607,54.447 673.607,54.537 C 673.607,54.717 673.728,54.838 673.908,54.838 C 674.205,54.838 676.896,52.806 678.658,49.01 C 680.181,45.72 680.541,42.404 680.541,39.892 z"
       id="path44"
       style="fill:#000000;fill-rule:evenodd;stroke:none" />
    <path
       d="M 707.349,39.845 C 707.349,8.689 668.275,0.899994 632.052,0.899994 C 595.834,0.899994 556.756,8.689 556.756,39.845 C 556.756,70.994 595.834,78.787 632.052,78.787 C 668.275,78.787 707.349,70.994 707.349,39.845 z"
       id="path46"
       style="fill:none;stroke:#000000;stroke-width:1.79999995;stroke-linejoin:round" />
    <path
       d="M 164.431,170.978 C 164.549,170.56 164.549,170.498 164.549,170.291 C 164.549,169.752 164.131,169.482 163.681,169.482 C 163.384,169.482 162.904,169.662 162.634,170.111 C 162.576,170.259 162.338,171.185 162.216,171.724 C 162.009,172.502 161.799,173.31 161.619,174.115 L 160.275,179.494 C 160.154,179.943 158.869,182.037 156.896,182.037 C 155.373,182.037 155.045,180.72 155.045,179.615 C 155.045,178.24 155.552,176.388 156.568,173.756 C 157.049,172.533 157.166,172.205 157.166,171.607 C 157.166,170.259 156.209,169.154 154.716,169.154 C 151.877,169.154 150.771,173.49 150.771,173.756 C 150.771,174.056 151.068,174.056 151.131,174.056 C 151.427,174.056 151.459,173.998 151.607,173.517 C 152.416,170.709 153.611,169.81 154.627,169.81 C 154.865,169.81 155.373,169.81 155.373,170.767 C 155.373,171.517 155.076,172.295 154.865,172.861 C 153.67,176.029 153.131,177.732 153.131,179.138 C 153.131,181.799 155.013,182.693 156.779,182.693 C 157.943,182.693 158.959,182.185 159.799,181.349 C 159.408,182.904 159.049,184.369 157.853,185.951 C 157.076,186.967 155.943,187.834 154.568,187.834 C 154.146,187.834 152.802,187.744 152.295,186.58 C 152.775,186.58 153.162,186.58 153.58,186.22 C 153.881,185.951 154.177,185.564 154.177,184.994 C 154.177,184.068 153.373,183.951 153.072,183.951 C 152.384,183.951 151.4,184.427 151.4,185.892 C 151.4,187.384 152.713,188.494 154.568,188.494 C 157.646,188.494 160.724,185.771 161.56,182.396 L 164.431,170.978 z"
       id="path48"
       style="fill:#000000;fill-rule:evenodd;stroke:none" />
    <path
       d="M 175.799,189.537 C 175.799,189.447 175.799,189.388 175.291,188.881 C 171.552,185.115 170.595,179.467 170.595,174.892 C 170.595,169.693 171.732,164.494 175.408,160.756 C 175.799,160.396 175.799,160.338 175.799,160.248 C 175.799,160.037 175.677,159.951 175.498,159.951 C 175.201,159.951 172.509,161.982 170.748,165.779 C 169.22,169.064 168.861,172.381 168.861,174.892 C 168.861,177.224 169.193,180.842 170.834,184.217 C 172.631,187.892 175.201,189.838 175.498,189.838 C 175.677,189.838 175.799,189.748 175.799,189.537 z"
       id="path50"
       style="fill:#000000;fill-rule:evenodd;stroke:none" />
    <path
       d="M 184.06,170.408 L 186.869,170.408 C 187.466,170.408 187.767,170.408 187.767,169.81 C 187.767,169.482 187.466,169.482 186.931,169.482 L 184.299,169.482 C 185.377,165.24 185.525,164.642 185.525,164.463 C 185.525,163.955 185.166,163.654 184.658,163.654 C 184.568,163.654 183.732,163.685 183.463,164.732 L 182.299,169.482 L 179.49,169.482 C 178.888,169.482 178.592,169.482 178.592,170.052 C 178.592,170.408 178.83,170.408 179.427,170.408 L 182.06,170.408 C 179.908,178.896 179.787,179.408 179.787,179.943 C 179.787,181.556 180.924,182.693 182.537,182.693 C 185.584,182.693 187.291,178.33 187.291,178.092 C 187.291,177.791 187.049,177.791 186.931,177.791 C 186.662,177.791 186.631,177.881 186.482,178.209 C 185.197,181.318 183.611,182.037 182.595,182.037 C 181.97,182.037 181.67,181.646 181.67,180.662 C 181.67,179.943 181.728,179.736 181.849,179.228 L 184.06,170.408 z"
       id="path52"
       style="fill:#000000;fill-rule:evenodd;stroke:none" />
    <path
       d="M 214.662,175.49 C 215.08,175.49 215.646,175.49 215.646,174.892 C 215.646,174.295 215.08,174.295 214.662,174.295 L 198.373,174.295 C 197.951,174.295 197.384,174.295 197.384,174.892 C 197.384,175.49 197.951,175.49 198.373,175.49 L 214.662,175.49 z"
       id="path54"
       style="fill:#000000;fill-rule:evenodd;stroke:none" />
    <path
       d="M 233.689,163.236 C 233.689,162.521 233.689,162.459 233.006,162.459 C 231.15,164.373 228.521,164.373 227.564,164.373 L 227.564,165.299 C 228.162,165.299 229.924,165.299 231.478,164.521 L 231.478,180.006 C 231.478,181.08 231.388,181.439 228.701,181.439 L 227.744,181.439 L 227.744,182.365 C 228.791,182.275 231.388,182.275 232.584,182.275 C 233.779,182.275 236.381,182.275 237.427,182.365 L 237.427,181.439 L 236.47,181.439 C 233.779,181.439 233.689,181.111 233.689,180.006 L 233.689,163.236 z M 248.541,174.892 C 248.541,172.56 248.213,168.947 246.568,165.568 C 244.775,161.892 242.205,159.951 241.908,159.951 C 241.728,159.951 241.607,160.068 241.607,160.248 C 241.607,160.338 241.607,160.396 242.177,160.935 C 245.103,163.892 246.806,168.646 246.806,174.892 C 246.806,180.006 245.701,185.263 241.998,189.029 C 241.607,189.388 241.607,189.447 241.607,189.537 C 241.607,189.717 241.728,189.838 241.908,189.838 C 242.205,189.838 244.896,187.806 246.658,184.009 C 248.181,180.72 248.541,177.404 248.541,174.892 z"
       id="path56"
       style="fill:#000000;fill-rule:evenodd;stroke:none" />
    <path
       d="M 275.541,174.424 C 275.541,143.502 236.865,135.482 200.924,135.482 C 164.978,135.482 126.302,143.502 126.302,174.424 C 126.302,205.349 164.978,213.369 200.924,213.369 C 236.865,213.369 275.541,205.349 275.541,174.424 z"
       id="path58"
       style="fill:none;stroke:#000000;stroke-width:1.79999995;stroke-linejoin:round" />
    <path
       d="M 406.431,170.978 C 406.549,170.56 406.549,170.498 406.549,170.291 C 406.549,169.752 406.131,169.482 405.681,169.482 C 405.384,169.482 404.904,169.662 404.634,170.111 C 404.576,170.259 404.338,171.185 404.216,171.724 C 404.009,172.502 403.799,173.31 403.619,174.115 L 402.275,179.494 C 402.154,179.943 400.869,182.037 398.896,182.037 C 397.373,182.037 397.045,180.72 397.045,179.615 C 397.045,178.24 397.552,176.388 398.568,173.756 C 399.049,172.533 399.166,172.205 399.166,171.607 C 399.166,170.259 398.209,169.154 396.716,169.154 C 393.877,169.154 392.771,173.49 392.771,173.756 C 392.771,174.056 393.068,174.056 393.131,174.056 C 393.427,174.056 393.459,173.998 393.607,173.517 C 394.416,170.709 395.611,169.81 396.627,169.81 C 396.865,169.81 397.373,169.81 397.373,170.767 C 397.373,171.517 397.076,172.295 396.865,172.861 C 395.67,176.029 395.131,177.732 395.131,179.138 C 395.131,181.799 397.013,182.693 398.779,182.693 C 399.943,182.693 400.959,182.185 401.799,181.349 C 401.408,182.904 401.049,184.369 399.853,185.951 C 399.076,186.967 397.943,187.834 396.568,187.834 C 396.146,187.834 394.802,187.744 394.295,186.58 C 394.775,186.58 395.162,186.58 395.58,186.22 C 395.881,185.951 396.177,185.564 396.177,184.994 C 396.177,184.068 395.373,183.951 395.072,183.951 C 394.384,183.951 393.4,184.427 393.4,185.892 C 393.4,187.384 394.713,188.494 396.568,188.494 C 399.646,188.494 402.724,185.771 403.56,182.396 L 406.431,170.978 z"
       id="path60"
       style="fill:#000000;fill-rule:evenodd;stroke:none" />
    <path
       d="M 416.799,189.537 C 416.799,189.447 416.799,189.388 416.291,188.881 C 412.552,185.115 411.595,179.467 411.595,174.892 C 411.595,169.693 412.732,164.494 416.408,160.756 C 416.799,160.396 416.799,160.338 416.799,160.248 C 416.799,160.037 416.677,159.951 416.498,159.951 C 416.201,159.951 413.509,161.982 411.748,165.779 C 410.22,169.064 409.861,172.381 409.861,174.892 C 409.861,177.224 410.193,180.842 411.834,184.217 C 413.631,187.892 416.201,189.838 416.498,189.838 C 416.677,189.838 416.799,189.748 416.799,189.537 z"
       id="path62"
       style="fill:#000000;fill-rule:evenodd;stroke:none" />
    <path
       d="M 425.06,170.408 L 427.869,170.408 C 428.466,170.408 428.767,170.408 428.767,169.81 C 428.767,169.482 428.466,169.482 427.931,169.482 L 425.299,169.482 C 426.377,165.24 426.525,164.642 426.525,164.463 C 426.525,163.955 426.166,163.654 425.658,163.654 C 425.568,163.654 424.732,163.685 424.463,164.732 L 423.299,169.482 L 420.49,169.482 C 419.888,169.482 419.592,169.482 419.592,170.052 C 419.592,170.408 419.83,170.408 420.427,170.408 L 423.06,170.408 C 420.908,178.896 420.787,179.408 420.787,179.943 C 420.787,181.556 421.924,182.693 423.537,182.693 C 426.584,182.693 428.291,178.33 428.291,178.092 C 428.291,177.791 428.049,177.791 427.931,177.791 C 427.662,177.791 427.631,177.881 427.482,178.209 C 426.197,181.318 424.611,182.037 423.595,182.037 C 422.97,182.037 422.67,181.646 422.67,180.662 C 422.67,179.943 422.728,179.736 422.849,179.228 L 425.06,170.408 z"
       id="path64"
       style="fill:#000000;fill-rule:evenodd;stroke:none" />
    <path
       d="M 438.541,174.892 C 438.541,172.56 438.213,168.947 436.568,165.568 C 434.775,161.892 432.205,159.951 431.908,159.951 C 431.728,159.951 431.607,160.068 431.607,160.248 C 431.607,160.338 431.607,160.396 432.177,160.935 C 435.103,163.892 436.806,168.646 436.806,174.892 C 436.806,180.006 435.701,185.263 431.998,189.029 C 431.607,189.388 431.607,189.447 431.607,189.537 C 431.607,189.717 431.728,189.838 431.908,189.838 C 432.205,189.838 434.896,187.806 436.658,184.009 C 438.181,180.72 438.541,177.404 438.541,174.892 z"
       id="path66"
       style="fill:#000000;fill-rule:evenodd;stroke:none" />
    <path
       d="M 465.369,174.424 C 465.369,150.869 441.853,135.482 416.49,135.482 C 391.123,135.482 367.607,150.869 367.607,174.424 C 367.607,197.982 391.123,213.369 416.49,213.369 C 441.853,213.369 465.369,197.982 465.369,174.424 z"
       id="path68"
       style="fill:none;stroke:#000000;stroke-width:1.79999995;stroke-linejoin:round" />
    <path
       d="M 596.431,170.978 C 596.549,170.56 596.549,170.498 596.549,170.291 C 596.549,169.752 596.131,169.482 595.681,169.482 C 595.384,169.482 594.904,169.662 594.634,170.111 C 594.576,170.259 594.338,171.185 594.216,171.724 C 594.009,172.502 593.799,173.31 593.619,174.115 L 592.275,179.494 C 592.154,179.943 590.869,182.037 588.896,182.037 C 587.373,182.037 587.045,180.72 587.045,179.615 C 587.045,178.24 587.552,176.388 588.568,173.756 C 589.049,172.533 589.166,172.205 589.166,171.607 C 589.166,170.259 588.209,169.154 586.716,169.154 C 583.877,169.154 582.771,173.49 582.771,173.756 C 582.771,174.056 583.068,174.056 583.131,174.056 C 583.427,174.056 583.459,173.998 583.607,173.517 C 584.416,170.709 585.611,169.81 586.627,169.81 C 586.865,169.81 587.373,169.81 587.373,170.767 C 587.373,171.517 587.076,172.295 586.865,172.861 C 585.67,176.029 585.131,177.732 585.131,179.138 C 585.131,181.799 587.013,182.693 588.779,182.693 C 589.943,182.693 590.959,182.185 591.799,181.349 C 591.408,182.904 591.049,184.369 589.853,185.951 C 589.076,186.967 587.943,187.834 586.568,187.834 C 586.146,187.834 584.802,187.744 584.295,186.58 C 584.775,186.58 585.162,186.58 585.58,186.22 C 585.881,185.951 586.177,185.564 586.177,184.994 C 586.177,184.068 585.373,183.951 585.072,183.951 C 584.384,183.951 583.4,184.427 583.4,185.892 C 583.4,187.384 584.713,188.494 586.568,188.494 C 589.646,188.494 592.724,185.771 593.56,182.396 L 596.431,170.978 z"
       id="path70"
       style="fill:#000000;fill-rule:evenodd;stroke:none" />
    <path
       d="M 606.799,189.537 C 606.799,189.447 606.799,189.388 606.291,188.881 C 602.552,185.115 601.595,179.467 601.595,174.892 C 601.595,169.693 602.732,164.494 606.408,160.756 C 606.799,160.396 606.799,160.338 606.799,160.248 C 606.799,160.037 606.677,159.951 606.498,159.951 C 606.201,159.951 603.509,161.982 601.748,165.779 C 600.22,169.064 599.861,172.381 599.861,174.892 C 599.861,177.224 600.193,180.842 601.834,184.217 C 603.631,187.892 606.201,189.838 606.498,189.838 C 606.677,189.838 606.799,189.748 606.799,189.537 z"
       id="path72"
       style="fill:#000000;fill-rule:evenodd;stroke:none" />
    <path
       d="M 615.06,170.408 L 617.869,170.408 C 618.466,170.408 618.767,170.408 618.767,169.81 C 618.767,169.482 618.466,169.482 617.931,169.482 L 615.299,169.482 C 616.377,165.24 616.525,164.642 616.525,164.463 C 616.525,163.955 616.166,163.654 615.658,163.654 C 615.568,163.654 614.732,163.685 614.463,164.732 L 613.299,169.482 L 610.49,169.482 C 609.888,169.482 609.592,169.482 609.592,170.052 C 609.592,170.408 609.83,170.408 610.427,170.408 L 613.06,170.408 C 610.908,178.896 610.787,179.408 610.787,179.943 C 610.787,181.556 611.924,182.693 613.537,182.693 C 616.584,182.693 618.291,178.33 618.291,178.092 C 618.291,177.791 618.049,177.791 617.931,177.791 C 617.662,177.791 617.631,177.881 617.482,178.209 C 616.197,181.318 614.611,182.037 613.595,182.037 C 612.97,182.037 612.67,181.646 612.67,180.662 C 612.67,179.943 612.728,179.736 612.849,179.228 L 615.06,170.408 z"
       id="path74"
       style="fill:#000000;fill-rule:evenodd;stroke:none" />
    <path
       d="M 638.127,175.49 L 646.466,175.49 C 646.884,175.49 647.455,175.49 647.455,174.892 C 647.455,174.295 646.884,174.295 646.466,174.295 L 638.127,174.295 L 638.127,165.927 C 638.127,165.509 638.127,164.939 637.529,164.939 C 636.931,164.939 636.931,165.509 636.931,165.927 L 636.931,174.295 L 628.564,174.295 C 628.146,174.295 627.576,174.295 627.576,174.892 C 627.576,175.49 628.146,175.49 628.564,175.49 L 636.931,175.49 L 636.931,183.861 C 636.931,184.279 636.931,184.845 637.529,184.845 C 638.127,184.845 638.127,184.279 638.127,183.861 L 638.127,175.49 z"
       id="path76"
       style="fill:#000000;fill-rule:evenodd;stroke:none" />
    <path
       d="M 664.689,163.236 C 664.689,162.521 664.689,162.459 664.006,162.459 C 662.15,164.373 659.521,164.373 658.564,164.373 L 658.564,165.299 C 659.162,165.299 660.924,165.299 662.478,164.521 L 662.478,180.006 C 662.478,181.08 662.388,181.439 659.701,181.439 L 658.744,181.439 L 658.744,182.365 C 659.791,182.275 662.388,182.275 663.584,182.275 C 664.779,182.275 667.381,182.275 668.427,182.365 L 668.427,181.439 L 667.47,181.439 C 664.779,181.439 664.689,181.111 664.689,180.006 L 664.689,163.236 z M 679.541,174.892 C 679.541,172.56 679.213,168.947 677.568,165.568 C 675.775,161.892 673.205,159.951 672.908,159.951 C 672.728,159.951 672.607,160.068 672.607,160.248 C 672.607,160.338 672.607,160.396 673.177,160.935 C 676.103,163.892 677.806,168.646 677.806,174.892 C 677.806,180.006 676.701,185.263 672.998,189.029 C 672.607,189.388 672.607,189.447 672.607,189.537 C 672.607,189.717 672.728,189.838 672.908,189.838 C 673.205,189.838 675.896,187.806 677.658,184.009 C 679.181,180.72 679.541,177.404 679.541,174.892 z"
       id="path78"
       style="fill:#000000;fill-rule:evenodd;stroke:none" />
    <path
       d="M 706.674,174.424 C 706.674,143.502 667.998,135.482 632.052,135.482 C 596.111,135.482 557.435,143.502 557.435,174.424 C 557.435,205.349 596.111,213.369 632.052,213.369 C 667.998,213.369 706.674,205.349 706.674,174.424 z"
       id="path80"
       style="fill:none;stroke:#000000;stroke-width:1.79999995;stroke-linejoin:round" />
    <path
       d="M 276.216,39.845 L 366.927,39.845"
       id="path82"
       style="fill:none;stroke:#000000;stroke-width:1.79999995;stroke-linecap:round;stroke-linejoin:round" />
    <path
       d="M 359.537,42.904 L 366.927,39.845 L 359.537,36.783"
       id="path84"
       style="fill:#000000;fill-rule:evenodd;stroke:none" />
    <path
       d="M 359.537,42.904 L 366.927,39.845 L 359.537,36.783 L 359.537,42.904 z"
       id="path86"
       style="fill:none;stroke:#000000;stroke-width:1.79999995;stroke-linecap:round;stroke-linejoin:round" />
    <path
       d="M 466.049,39.845 L 556.756,39.845"
       id="path88"
       style="fill:none;stroke:#000000;stroke-width:1.79999995;stroke-linecap:round;stroke-linejoin:round" />
    <path
       d="M 549.365,42.904 L 556.756,39.845 L 549.365,36.783"
       id="path90"
       style="fill:#000000;fill-rule:evenodd;stroke:none" />
    <path
       d="M 549.365,42.904 L 556.756,39.845 L 549.365,36.783 L 549.365,42.904 z"
       id="path92"
       style="fill:none;stroke:#000000;stroke-width:1.79999995;stroke-linecap:round;stroke-linejoin:round" />
    <path
       d="M 200.924,78.787 L 200.924,135.482"
       id="path94"
       style="fill:none;stroke:#000000;stroke-width:1.79999995;stroke-linecap:round;stroke-linejoin:round" />
    <path
       d="M 197.861,128.088 L 200.924,135.482 L 203.982,128.088"
       id="path96"
       style="fill:#000000;fill-rule:evenodd;stroke:none" />
    <path
       d="M 197.861,128.088 L 200.924,135.482 L 203.982,128.088 L 197.861,128.088 z"
       id="path98"
       style="fill:none;stroke:#000000;stroke-width:1.79999995;stroke-linecap:round;stroke-linejoin:round" />
    <path
       d="M 416.49,78.787 L 416.49,135.482"
       id="path100"
       style="fill:none;stroke:#000000;stroke-width:1.79999995;stroke-linecap:round;stroke-linejoin:round" />
    <path
       d="M 413.427,128.088 L 416.49,135.482 L 419.549,128.088"
       id="path102"
       style="fill:#000000;fill-rule:evenodd;stroke:none" />
    <path
       d="M 413.427,128.088 L 416.49,135.482 L 419.549,128.088 L 413.427,128.088 z"
       id="path104"
       style="fill:none;stroke:#000000;stroke-width:1.79999995;stroke-linecap:round;stroke-linejoin:round" />
    <path
       d="M 632.052,78.787 L 632.052,135.482"
       id="path106"
       style="fill:none;stroke:#000000;stroke-width:1.79999995;stroke-linecap:round;stroke-linejoin:round" />
    <path
       d="M 628.994,128.088 L 632.052,135.482 L 635.115,128.088"
       id="path108"
       style="fill:#000000;fill-rule:evenodd;stroke:none" />
    <path
       d="M 628.994,128.088 L 632.052,135.482 L 635.115,128.088 L 628.994,128.088 z"
       id="path110"
       style="fill:none;stroke:#000000;stroke-width:1.79999995;stroke-linecap:round;stroke-linejoin:round" />
    <path
       d="M 51.9234,39.845 L 125.623,39.845"
       id="path112"
       style="fill:none;stroke:#000000;stroke-width:1.79999995;stroke-linejoin:round" />
    <path
       d="M 118.232,42.904 L 125.623,39.845 L 118.232,36.783"
       id="path114"
       style="fill:#000000;fill-rule:evenodd;stroke:none" />
    <path
       d="M 118.232,42.904 L 125.623,39.845 L 118.232,36.783 L 118.232,42.904 z"
       id="path116"
       style="fill:none;stroke:#000000;stroke-width:1.79999995;stroke-linejoin:round" />
    <path
       d="M 707.349,39.845 L 781.052,39.845"
       id="path118"
       style="fill:none;stroke:#000000;stroke-width:1.79999995;stroke-linejoin:round" />
    <path
       d="M 773.662,42.904 L 781.052,39.845 L 773.662,36.783"
       id="path120"
       style="fill:#000000;fill-rule:evenodd;stroke:none" />
    <path
       d="M 773.662,42.904 L 781.052,39.845 L 773.662,36.783 L 773.662,42.904 z"
       id="path122"
       style="fill:none;stroke:#000000;stroke-width:1.79999995;stroke-linejoin:round" />
    <path
       d="M 0.9,39.845 L 34.9156,39.845"
       id="path124"
       style="fill:none;stroke:#000000;stroke-width:1.79999995;stroke-linejoin:round;stroke-dasharray:6, 3" />
    <path
       d="M 798.06,39.845 L 832.076,39.845"
       id="path126"
       style="fill:none;stroke:#000000;stroke-width:1.79999995;stroke-linejoin:round;stroke-dasharray:6, 3" />
  </g>
</svg>
